<?xml version="1.0" encoding="utf-8"?>
<!-- Generator: Adobe Illustrator 16.0.0, SVG Export Plug-In . SVG Version: 6.00 Build 0)  -->
<!DOCTYPE svg PUBLIC "-//W3C//DTD SVG 1.1//EN" "http://www.w3.org/Graphics/SVG/1.1/DTD/svg11.dtd">
<svg version="1.1" id="Layer_1" xmlns="http://www.w3.org/2000/svg" xmlns:xlink="http://www.w3.org/1999/xlink" x="0px" y="0px"
	 width="25.875px" height="25.812px" viewBox="0 0 25.875 25.812" enable-background="new 0 0 25.875 25.812" xml:space="preserve">
<g>
	<path fill="#5D5E5E" d="M23.728,12.904c0-5.908-4.79-10.698-10.696-10.698c-5.911,0-10.699,4.79-10.699,10.698
		c0,5.907,4.788,10.697,10.699,10.697C18.938,23.601,23.728,18.811,23.728,12.904z"/>
	<g>
		<g>
			<defs>
				<path id="SVGID_1_" d="M23.728,12.847c0-5.909-4.792-10.698-10.699-10.698c-5.908,0-10.698,4.789-10.698,10.698
					c0,5.905,4.79,10.695,10.698,10.695C18.936,23.542,23.728,18.752,23.728,12.847z"/>
			</defs>
			<clipPath id="SVGID_2_">
				<use xlink:href="#SVGID_1_"  overflow="visible"/>
			</clipPath>
			<g clip-path="url(#SVGID_2_)">
				<text transform="matrix(1 0 0 1 11.1362 24.1191)" fill="#FAF7F0" font-family="'Tahoma'" font-size="22.0054">f</text>
			</g>
		</g>
	</g>
</g>
</svg>
