<?xml version="1.0" encoding="utf-8"?>
<!-- Generator: Adobe Illustrator 16.0.0, SVG Export Plug-In . SVG Version: 6.00 Build 0)  -->
<!DOCTYPE svg PUBLIC "-//W3C//DTD SVG 1.1//EN" "http://www.w3.org/Graphics/SVG/1.1/DTD/svg11.dtd">
<svg version="1.1" id="Layer_1" xmlns="http://www.w3.org/2000/svg" xmlns:xlink="http://www.w3.org/1999/xlink" x="0px" y="0px"
	 width="169.945px" height="58.125px" viewBox="0 0 169.945 58.125" enable-background="new 0 0 169.945 58.125"
	 xml:space="preserve">
<g>
	<g>
		<path fill="#B9842C" d="M55.881,3.572c0,0,1.507,2.122,3.102,3.139c0,0-0.575-2.772-1.022-3.427c0,0,2.367,1.529,2.203,6.269
			c0,0-0.509-0.95-0.979-1.408c-0.459-0.462-2.069-1.424-2.611-2.231C56.021,5.094,55.896,4.247,55.881,3.572z"/>
		<path fill="#B9842C" d="M60.046,4.203c0,0,1.611,2.307,1.489,4.738c-0.12,2.428-0.168,3.269,0.009,3.738c0,0-0.64-1.6-1.23-1.839
			c-0.597-0.248-2.8-0.311-4.027-3.477c0,0-0.16-0.424,0-0.217c0.166,0.2,2.514,2.018,3.346,2.408
			c0.841,0.388,1.038,0.958,1.07,1.018c0,0-0.229-4.106-0.266-4.693C60.394,5.284,60.046,4.203,60.046,4.203z"/>
		<path fill="#B9842C" d="M57.023,9.84c0,0,1.701,1.63,2.634,2.017c0.944,0.393,1.96,1.396,2.265,1.8c0,0,0.103-2.775,0.145-3.552
			c0.045-0.778,0.045-3.704,0-3.876c-0.042-0.188,0.1-0.277,0.162,0c0.063,0.268,1.006,2.764,1.061,3.626
			c0.062,0.86-0.613,3.698-0.699,4.374c-0.076,0.674,0,1.025,0,1.104c0,0-0.157-1.064-0.73-1.311
			c-0.569-0.244-3.513-0.608-4.837-3.981C57.023,10.042,56.929,9.751,57.023,9.84z"/>
		<path fill="#B9842C" d="M63.943,7.92c0,0,1.001,2.122,0.945,4.758c-0.059,2.636-1.475,4.839-1.272,5.796
			c0,0-0.134-0.883-1.101-1.205c-0.958-0.327-4.098-1.736-4.698-4.492c0,0-0.124-0.494,0-0.387c0.133,0.106,1.675,1.977,2.842,2.533
			c1.162,0.548,2.282,1.65,2.366,1.836c0,0,0.388-3.836,0.699-4.759C64.026,11.079,63.958,8.019,63.943,7.92z"/>
		<path fill="#B9842C" d="M63.895,19.539c0,0,0.648-3.224,1.167-4.614c0.54-1.39,0.621-4.292,0.66-4.618
			c0.04-0.323,0.206-0.183,0.206,0c0,0.186,0.491,3.393,0.306,4.637c-0.18,1.242-2.144,5.632-2.027,6.231
			c0,0-0.013-1.083-0.909-1.312c-0.905-0.223-2.924-1.31-3.945-2.84c-1.024-1.533-1.202-2.12-1.123-2.22
			c0.077-0.104,0.942,0.958,1.73,1.511c0.8,0.553,2.189,1.41,2.68,1.858C63.128,18.619,63.883,19.416,63.895,19.539z"/>
		<path fill="#B9842C" d="M64.313,22.292c0,0,1.002-3.102,1.474-4.047c0.466-0.933,1.404-3.61,1.382-4.466
			c-0.018-0.854,0.205-0.263,0.185,0c-0.018,0.269,0.062,3.127-0.243,4.228c-0.312,1.095-2.507,5.001-2.612,5.654
			c0,0-0.356-0.695-1.7-1.53c-1.346-0.842-2.08-1.629-2.08-1.629s-1.188-1.455-1.849-3.154c-0.642-1.685,0.129-0.26,0.3-0.101
			c0.166,0.167,2.38,2.737,4.125,3.93C63.296,21.175,64.39,22.067,64.313,22.292z"/>
		<path fill="#B9842C" d="M64.604,24.901c0,0,0.853-2.406,1.671-3.487c0.815-1.082,1.714-3.654,1.895-4.286
			c0.187-0.635,0.248,0.365,0.225,0.569c-0.019,0.202-0.101,3.146-1.115,4.578c-1.026,1.431-2.542,3.31-2.675,3.678
			c0,0-2.599-1.886-3.58-3.271c-0.978-1.395-1.391-3.004-1.445-3.493c-0.064-0.494,0.366,0.322,0.815,0.873
			c0.45,0.558,1.979,2.432,2.264,2.698c0.284,0.27,1.629,1.798,1.719,2.272C64.376,25.034,64.534,25.088,64.604,24.901z"/>
		<path fill="#B9842C" d="M64.358,27.605c0,0,1.854-2.527,2.612-3.43c0.753-0.902,1.955-3.414,2.143-3.721
			c0.18-0.301,0.078,0.122,0,0.592c-0.088,0.477-0.388,3.129-1.896,4.783c-1.524,1.652-2.739,2.814-2.86,2.938
			c0,0-0.815-1.079-2.115-2.426c-1.299-1.349-2.362-3.24-2.317-4.481c0.032-1.236,0.263,0.377,0.356,0.497
			c0.111,0.122,1.314,2.555,3.014,3.597C63.497,26.071,64.229,26.806,64.358,27.605z"/>
		<path fill="#B9842C" d="M63.982,30.56c0,0,1.739-2.419,3.372-3.836c1.635-1.411,2.446-3.018,2.6-3.185
			c0.132-0.163,0,0.451-0.164,0.758c-0.17,0.306-1.516,4.338-4.269,6.002c-0.267,0.165-1.562,0.999-1.765,1.487
			c0,0-1.165-1.654-1.916-2.527c-0.754-0.884-2.124-3.755-2.078-5.37c0.04-1.613,0.308,0.141,0.507,0.565
			c0.205,0.433,1.388,2.72,2.37,3.965c0.977,1.25,1.099,2.085,1.099,2.267C63.738,30.686,63.817,30.79,63.982,30.56z"/>
		<path fill="#B9842C" d="M63.601,32.93c0,0,2.121-2.077,3.042-2.855c0.918-0.776,2.896-2.57,3.363-3.388
			c0.47-0.822,0.244,0.303,0,0.614c-0.238,0.305-1.82,4.522-5.749,6.139c-0.361,0.146-0.947,0.553-1.071,0.737
			c-0.123,0.185-0.079-0.205-0.1-0.365c-0.023-0.168-1.039-1.375-1.631-2.025c-0.59-0.656-1.949-3.307-1.976-4.485
			c-0.043-1.19,0.118-1.347,0.283-0.739c0.165,0.612,1.214,2.532,1.773,3.125c0.552,0.594,1.443,2.522,1.456,3.244
			C62.991,32.93,63.054,33.217,63.601,32.93z"/>
		<path fill="#B9842C" d="M62.475,36.04c0,0,2.363-2.168,3.913-3.028c1.556-0.854,3.456-2.639,3.618-2.954
			c0.17-0.332,0.312,0.074,0.08,0.378c-0.219,0.312-3.099,4.583-5.424,5.351c-2.333,0.782-2.14,1.21-2.418,1.111
			c-0.278-0.104-0.036,0.217-1.134-1.434c-1.103-1.652-2.161-4.903-2.029-6.124c0.142-1.227,0.293-1.087,0.385-0.573
			c0.088,0.507,0.861,2.777,0.99,3.019c0.123,0.249,1.488,2.873,1.488,3.924C61.944,35.956,62.226,36.264,62.475,36.04z"/>
		<path fill="#B9842C" d="M61.68,38.1c0,0,2.302-1.457,3.551-1.883c1.248-0.432,3.473-2.198,3.986-2.574
			c0.51-0.367,0.421,0.225,0,0.581c-0.435,0.362-2.758,3.65-5.616,4.259c-2.858,0.613-2.727,1.164-3.022,0.535
			c-0.31-0.631-2.02-3.904-2.047-6.029c-0.014-2.123,0.079-2.589,0.233-2.287c0.138,0.311,0.808,3.29,1.153,4.173
			c0.352,0.874,1.042,3.161,0.957,3.528C60.874,38.403,61.502,38.215,61.68,38.1z"/>
		<path fill="#B9842C" d="M59.572,40.995c0,0,2.217-1.246,3.418-1.224c1.199,0.021,3.777-1.554,4.035-1.671
			c0.267-0.104,0.683-0.186,0.328,0.181c-0.348,0.368-2.854,2.882-5.41,3.168c-2.547,0.284-2.944,0.429-3.041,0.225
			c-0.102-0.21-1.186-3.806-1.352-4.49c-0.163-0.677-0.282-3.174,0.105-4.071c0.39-0.893,0.343,0.065,0.366,0.393
			c0.024,0.324,0.426,2.963,0.6,3.594c0.179,0.631,0.451,3.471,0.445,3.896C59.067,41.426,59.451,41.065,59.572,40.995z"/>
		<path fill="#B9842C" d="M57.735,43.117c0,0,3.395-0.873,4.703-0.932c1.317-0.065,3.244-0.839,3.632-0.985
			c0.387-0.141-0.144,0.314-0.451,0.568c-0.305,0.247-1.907,1.312-2.629,1.578c-0.722,0.268-4.429,0.859-5.593,0.407l-0.167-0.637
			c0,0-1.182-3.444-0.86-5.414c0.325-1.976,0.57-2.461,0.591-2.089c0.019,0.363,0.347,3.771,0.525,4.412
			C57.677,40.673,57.879,42.812,57.735,43.117z"/>
		<path fill="#B9842C" d="M55.86,44.529c0,0,5.902-0.163,6.755-0.263c0.866-0.107,1.436-0.33,1.554-0.224
			c0.118,0.1-1.186,0.997-2.083,1.2c-0.899,0.207-3.244,0.9-6.872,0l-0.21-0.39c0,0-0.614-4.163,0.113-6.086
			c0.742-1.919,1.028-1.669,0.822-0.667c-0.197,1.019-0.042,5.676-0.387,6.413L55.86,44.529z"/>
		<path fill="#B9842C" d="M48.98,44.542c0,0,0.732-0.328,0.919-0.872c0.196-0.542-0.193-0.816-0.458-0.816
			c-0.271,0-1.086,0.156-1.305,0.684C47.92,44.055,47.968,44.653,48.98,44.542z"/>
		<path fill="#B9842C" d="M48.73,44.858c-0.649,0.232-0.944,1.29-0.7,1.84c0.243,0.533,1.107,0.922,1.92,0.533
			c0.824-0.371,1.042-1.506,0.737-1.842C50.395,45.059,50.123,44.35,48.73,44.858z"/>
		<path fill="#B9842C" d="M49.95,44.556c0,0,0.534-0.098,0.872,0.503c0.33,0.6,0.363,0.869,0.281,1.201
			c-0.078,0.326,0.38,0.029,0.542-0.416c0.171-0.43,0.109-1.302-0.542-1.63c-0.655-0.325-1.226,0.034-1.315,0.171
			C49.707,44.516,49.783,44.556,49.95,44.556z"/>
		<path fill="#B9842C" d="M53.228,48.495c0.174,0.383,0.729,0.463,1.379,0.135c0.654-0.323,0.799-0.811,0.691-1.236
			c-0.108-0.424-0.708-0.918-1.205-0.859C53.602,46.586,52.651,47.266,53.228,48.495z"/>
		<path fill="#B9842C" d="M54.319,48.979c0,0,0.871-0.108,1.189-0.731c0.332-0.628,0.332-0.19,0.276,0
			c-0.055,0.188-0.486,1.087-1.465,1.007C53.332,49.174,54.319,48.979,54.319,48.979z"/>
		<path fill="#B9842C" d="M52.576,48.381c0.104,0.379,0.542,0.576,0.73,0.731c0.189,0.171,0.134,0.383-0.363,0.362
			c-0.508-0.031-1.324,0.005-1.407-0.645c-0.081-0.641,0.056-0.994,0.356-1.02C52.188,47.778,52.435,47.894,52.576,48.381z"/>
		<path fill="#B9842C" d="M46.989,49.683c0,0,0.305,1.37,0.961,1.831c0,0,0.113,0.217,0.08,0.518
			c-0.037,0.295,0.262,0.08,0.297-0.275c0.028-0.346,0.381-0.378,0.48-0.242c0.119,0.137-0.288,0.61,0,0.656
			c0.309,0.047,0.725-0.059,0.765-0.47c0.031-0.403,0.203-0.431,0.188-0.13c-0.022,0.297-0.188,0.596,0.189,0.732
			c0.392,0.135,0.445,0.45,0.392,0.629c-0.053,0.189,0.978,1.656,4.424,1.416c0,0,0.195-0.273-0.577-0.578
			c-0.774-0.295-2.25-1.883-2.468-2.119c-0.214-0.24-0.587-0.301-0.832-0.272c0,0-0.525-1.309-2.082-1.448
			c0,0,0.119-0.817,1.725,0.168c1.604,0.979,1.059,0.412,1.359,0.467c0.296,0.051,1.227,1.006,1.874,0.898
			c0.659-0.113,1.292-0.74,1.563-0.711c0.264,0.023,0.076-0.545-0.48-0.737c-0.561-0.193-1.409-0.028-2.01,0.024
			c-0.597,0.059-0.816-0.497-1.439-0.424c-0.627,0.067-0.908,0.239-1.367-0.141c-0.453-0.387-1.706-0.574-1.866-0.326
			c-0.174,0.24,0.263,0.404,0.16,0.563c-0.108,0.161-0.493,0.707-1.037,0.026C46.738,49.061,46.989,49.683,46.989,49.683z"/>
		<path fill="#B9842C" d="M55.215,45.243c0,0-2.04,2.432-17.622,6.625c0,0-0.263-1.53,1.48-1.853
			c1.735-0.332,6.746-1.083,6.965-1.185c0.223-0.1-0.024-0.201-0.024-0.201s-0.764-0.497-0.764-0.955
			c0-0.467,0.188-0.956,0.764-0.926c0,0,0.024-0.432-0.221-0.384c-0.239,0.056-0.571-0.022-0.542-0.292
			c0.025-0.277-0.271-0.295-0.72-0.377c-0.423-0.09-0.403-0.605-0.403-0.605v-3.322c0,0,0.143-0.153,0.275-0.258
			c0,0,0.356,0.879,0.669,1.234c0.307,0.359,1.073,1.66,1.052,2.629c0,0-0.143,0.232,0.211,0.445
			c0.356,0.216,0.653,0.715,0.708,1.119c0.053,0.412-0.325,0.736,0,0.602c0.328-0.141,0.68-0.602,0.432-1.145
			c-0.242-0.551-0.597-1.008-0.403-1.528c0.191-0.517,0.191-0.708-0.028-0.956c-0.217-0.24-0.427-0.92-0.383-1.354l1.087-1.473
			c0,0,0.219,0.203,0.329,0.426c0.116,0.228,0.278,1.131,0.141,1.425c-0.141,0.305-0.495,0.818-0.522,1.344
			c-0.021,0.508,0.223,0.761,0.052,1.095c-0.162,0.336-0.215,0.914,0.064,1.324c0.265,0.406,0.479,1.002-0.033,1.25
			c-0.517,0.242-1.254-0.111-1.061,0.682c0,0,2.088-0.682,2.885-0.979c0.791-0.301,4.398-1.864,5.401-2.798"/>
		<path fill="#B9842C" d="M18.531,3.572c0,0-1.512,2.122-3.113,3.139c0,0,0.577-2.772,1.021-3.427c0,0-2.363,1.529-2.201,6.269
			c0,0,0.521-0.95,0.983-1.408c0.458-0.462,2.069-1.424,2.615-2.231C18.379,5.094,18.51,4.247,18.531,3.572z"/>
		<path fill="#B9842C" d="M14.361,4.203c0,0-1.608,2.307-1.487,4.738c0.12,2.428,0.166,3.269,0,3.738c0,0,0.624-1.6,1.213-1.839
			c0.608-0.248,2.805-0.311,4.031-3.477c0,0,0.167-0.424,0-0.217c-0.164,0.2-2.514,2.018-3.351,2.408
			c-0.832,0.388-1.04,0.958-1.057,1.018c0,0,0.226-4.106,0.262-4.693C14.014,5.284,14.361,4.203,14.361,4.203z"/>
		<path fill="#B9842C" d="M17.386,9.84c0,0-1.698,1.63-2.638,2.017c-0.934,0.393-1.966,1.396-2.271,1.8c0,0-0.097-2.775-0.132-3.552
			c-0.042-0.778-0.042-3.704,0-3.876c0.035-0.188-0.104-0.277-0.166,0c-0.059,0.268-1.002,2.764-1.066,3.626
			c-0.069,0.86,0.611,3.698,0.699,4.374c0.076,0.674,0,1.025,0,1.104c0,0,0.164-1.064,0.729-1.311
			c0.578-0.244,3.511-0.608,4.846-3.981C17.386,10.042,17.473,9.751,17.386,9.84z"/>
		<path fill="#B9842C" d="M10.459,7.92c0,0-0.999,2.122-0.939,4.758c0.058,2.636,1.471,4.839,1.267,5.796
			c0,0,0.145-0.883,1.101-1.205c0.957-0.327,4.098-1.736,4.704-4.492c0,0,0.117-0.494,0-0.387c-0.131,0.106-1.679,1.977-2.843,2.533
			c-1.158,0.548-2.286,1.65-2.369,1.836c0,0-0.388-3.836-0.695-4.759C10.378,11.079,10.438,8.019,10.459,7.92z"/>
		<path fill="#B9842C" d="M10.507,19.539c0,0-0.64-3.224-1.168-4.614c-0.532-1.39-0.613-4.292-0.654-4.618
			c-0.032-0.323-0.213-0.183-0.213,0c0,0.186-0.48,3.393-0.297,4.637c0.186,1.242,2.149,5.632,2.028,6.231
			c0,0,0.007-1.083,0.911-1.312c0.895-0.223,2.922-1.31,3.94-2.84c1.026-1.533,1.202-2.12,1.13-2.22
			c-0.09-0.104-0.944,0.958-1.743,1.511c-0.794,0.553-2.186,1.41-2.677,1.858C11.272,18.619,10.521,19.416,10.507,19.539z"/>
		<path fill="#B9842C" d="M10.093,22.292c0,0-1.001-3.102-1.471-4.047c-0.468-0.933-1.404-3.61-1.395-4.466
			c0.024-0.854-0.198-0.263-0.17,0c0.012,0.269-0.063,3.127,0.242,4.228c0.305,1.095,2.51,5.001,2.62,5.654
			c0,0,0.343-0.695,1.69-1.53c1.345-0.842,2.078-1.629,2.078-1.629s1.191-1.455,1.84-3.154c0.656-1.685-0.121-0.26-0.288-0.101
			c-0.166,0.167-2.379,2.737-4.127,3.93C11.113,21.175,10.01,22.067,10.093,22.292z"/>
		<path fill="#B9842C" d="M9.81,24.901c0,0-0.857-2.406-1.674-3.487c-0.818-1.082-1.722-3.654-1.906-4.286
			c-0.184-0.635-0.244,0.365-0.224,0.569c0.023,0.202,0.103,3.146,1.122,4.578c1.026,1.431,2.538,3.31,2.682,3.678
			c0,0,2.588-1.886,3.574-3.271c0.977-1.395,1.391-3.004,1.443-3.493c0.058-0.494-0.364,0.322-0.813,0.873
			c-0.444,0.558-1.98,2.432-2.269,2.698c-0.283,0.27-1.633,1.798-1.712,2.272C10.033,25.034,9.875,25.088,9.81,24.901z"/>
		<path fill="#B9842C" d="M10.052,27.605c0,0-1.854-2.527-2.618-3.43c-0.747-0.902-1.958-3.414-2.143-3.721
			c-0.182-0.301-0.082,0.122,0,0.592c0.084,0.477,0.395,3.129,1.912,4.783c1.501,1.652,2.726,2.814,2.849,2.938
			c0,0,0.808-1.079,2.12-2.426c1.292-1.349,2.354-3.24,2.31-4.481c-0.041-1.236-0.265,0.377-0.368,0.497
			c-0.1,0.122-1.301,2.555-3.001,3.597C10.907,26.071,10.175,26.806,10.052,27.605z"/>
		<path fill="#B9842C" d="M10.427,30.56c0,0-1.742-2.419-3.37-3.836c-1.642-1.411-2.457-3.018-2.6-3.185
			c-0.144-0.163,0,0.451,0.161,0.758c0.167,0.306,1.52,4.338,4.273,6.002c0.263,0.165,1.547,0.999,1.752,1.487
			c0,0,1.168-1.654,1.923-2.527c0.748-0.884,2.128-3.755,2.08-5.37c-0.041-1.613-0.312,0.141-0.509,0.565
			c-0.202,0.433-1.385,2.72-2.374,3.965c-0.978,1.25-1.101,2.085-1.101,2.267C10.663,30.686,10.589,30.79,10.427,30.56z"/>
		<path fill="#B9842C" d="M10.813,32.93c0,0-2.128-2.077-3.049-2.855c-0.923-0.776-2.901-2.57-3.363-3.388
			c-0.474-0.822-0.245,0.303,0,0.614c0.245,0.305,1.817,4.522,5.76,6.139c0.346,0.146,0.933,0.553,1.062,0.737
			c0.12,0.185,0.07-0.205,0.093-0.365c0.027-0.168,1.044-1.375,1.637-2.025c0.593-0.656,1.938-3.307,1.981-4.485
			c0.04-1.19-0.125-1.347-0.288-0.739c-0.165,0.612-1.229,2.532-1.773,3.125c-0.555,0.594-1.44,2.522-1.459,3.244
			C11.415,32.93,11.355,33.217,10.813,32.93z"/>
		<path fill="#B9842C" d="M11.934,36.04c0,0-2.37-2.168-3.921-3.028c-1.548-0.854-3.448-2.639-3.611-2.954
			c-0.175-0.332-0.313,0.074-0.088,0.378c0.226,0.312,3.108,4.583,5.432,5.351c2.331,0.782,2.142,1.21,2.427,1.111
			c0.274-0.104,0.03,0.217,1.13-1.434c1.094-1.652,2.166-4.903,2.022-6.124c-0.149-1.227-0.294-1.087-0.386-0.573
			c-0.087,0.507-0.862,2.777-0.993,3.019c-0.117,0.249-1.488,2.873-1.488,3.924C12.458,35.956,12.179,36.264,11.934,36.04z"/>
		<path fill="#B9842C" d="M12.731,38.1c0,0-2.305-1.457-3.559-1.883C7.928,35.786,5.7,34.019,5.19,33.643
			c-0.502-0.367-0.424,0.225,0,0.581c0.43,0.362,2.761,3.65,5.623,4.259c2.853,0.613,2.708,1.164,3.016,0.535
			c0.309-0.631,2.018-3.904,2.051-6.029c0.01-2.123-0.092-2.589-0.234-2.287c-0.142,0.311-0.819,3.29-1.164,4.173
			c-0.344,0.874-1.042,3.161-0.96,3.528C13.521,38.403,12.9,38.215,12.731,38.1z"/>
		<path fill="#B9842C" d="M14.827,40.995c0,0-2.207-1.246-3.412-1.224c-1.201,0.021-3.762-1.554-4.042-1.671
			c-0.257-0.104-0.665-0.186-0.315,0.181c0.342,0.368,2.862,2.882,5.401,3.168c2.561,0.284,2.948,0.429,3.046,0.225
			c0.1-0.21,1.188-3.806,1.353-4.49c0.163-0.677,0.284-3.174-0.104-4.071c-0.392-0.893-0.354,0.065-0.369,0.393
			c-0.023,0.324-0.424,2.963-0.6,3.594c-0.18,0.631-0.45,3.471-0.45,3.896C15.338,41.426,14.958,41.065,14.827,40.995z"/>
		<path fill="#B9842C" d="M16.665,43.117c0,0-3.386-0.873-4.705-0.932c-1.317-0.065-3.234-0.839-3.62-0.985
			c-0.39-0.141,0.13,0.314,0.438,0.568c0.313,0.247,1.92,1.312,2.636,1.578c0.719,0.268,4.417,0.859,5.592,0.407l0.177-0.637
			c0,0,1.181-3.444,0.854-5.414c-0.322-1.976-0.576-2.461-0.593-2.089c-0.021,0.363-0.35,3.771-0.529,4.412
			C16.725,40.673,16.527,42.812,16.665,43.117z"/>
		<path fill="#B9842C" d="M18.55,44.529c0,0-5.9-0.163-6.761-0.263c-0.858-0.107-1.435-0.33-1.552-0.224
			c-0.125,0.1,1.178,0.997,2.082,1.2c0.901,0.207,3.245,0.9,6.883,0l0.199-0.39c0,0,0.616-4.163-0.12-6.086
			c-0.732-1.919-1.026-1.669-0.821-0.667c0.201,1.019,0.049,5.676,0.386,6.413L18.55,44.529z"/>
		<path fill="#B9842C" d="M25.429,44.542c0,0-0.737-0.328-0.925-0.872c-0.189-0.542,0.188-0.816,0.463-0.816
			c0.272,0,1.088,0.156,1.31,0.684C26.488,44.055,26.444,44.653,25.429,44.542z"/>
		<path fill="#B9842C" d="M25.672,44.858c0.654,0.232,0.944,1.29,0.708,1.84c-0.245,0.533-1.108,0.922-1.932,0.533
			c-0.822-0.371-1.033-1.506-0.733-1.842C24.015,45.059,24.28,44.35,25.672,44.858z"/>
		<path fill="#B9842C" d="M24.449,44.556c0,0-0.53-0.098-0.861,0.503c-0.336,0.6-0.361,0.869-0.276,1.201
			c0.075,0.326-0.392,0.029-0.555-0.416c-0.155-0.43-0.103-1.302,0.555-1.63c0.647-0.325,1.21,0.034,1.299,0.171
			C24.692,44.516,24.626,44.556,24.449,44.556z"/>
		<path fill="#B9842C" d="M21.178,48.495c-0.174,0.383-0.733,0.463-1.386,0.135c-0.653-0.323-0.791-0.811-0.679-1.236
			c0.109-0.424,0.708-0.918,1.194-0.859C20.809,46.586,21.749,47.266,21.178,48.495z"/>
		<path fill="#B9842C" d="M20.094,48.979c0,0-0.871-0.108-1.198-0.731c-0.333-0.628-0.333-0.19-0.271,0
			c0.053,0.188,0.488,1.087,1.469,1.007C21.071,49.174,20.094,48.979,20.094,48.979z"/>
		<path fill="#B9842C" d="M21.829,48.381c-0.099,0.379-0.542,0.576-0.733,0.731c-0.187,0.171-0.134,0.383,0.367,0.362
			c0.509-0.031,1.328,0.005,1.398-0.645c0.091-0.641-0.051-0.994-0.352-1.02C22.219,47.778,21.973,47.894,21.829,48.381z"/>
		<path fill="#B9842C" d="M27.419,49.683c0,0-0.311,1.37-0.958,1.831c0,0-0.123,0.217-0.081,0.518
			c0.033,0.295-0.265,0.08-0.303-0.275c-0.022-0.346-0.371-0.378-0.489-0.242c-0.106,0.137,0.307,0.61,0,0.656
			c-0.298,0.047-0.706-0.059-0.752-0.47c-0.027-0.403-0.21-0.431-0.19-0.13c0.021,0.297,0.19,0.596-0.198,0.732
			c-0.385,0.135-0.434,0.45-0.385,0.629c0.062,0.189-0.972,1.656-4.42,1.416c0,0-0.192-0.273,0.583-0.578
			c0.762-0.295,2.243-1.883,2.457-2.119c0.218-0.24,0.583-0.301,0.833-0.272c0,0,0.524-1.309,2.073-1.448
			c0,0-0.106-0.817-1.72,0.168c-1.603,0.979-1.059,0.412-1.359,0.467c-0.291,0.051-1.223,1.006-1.872,0.898
			c-0.657-0.113-1.292-0.74-1.558-0.711c-0.265,0.023-0.079-0.545,0.484-0.737c0.556-0.193,1.397-0.028,1.995,0.024
			c0.605,0.059,0.817-0.497,1.447-0.424c0.621,0.067,0.898,0.239,1.362-0.141c0.461-0.387,1.709-0.574,1.879-0.326
			c0.166,0.24-0.274,0.404-0.17,0.563c0.113,0.161,0.49,0.707,1.042,0.026C27.667,49.061,27.419,49.683,27.419,49.683z"/>
		<path fill="#B9842C" d="M19.203,45.243c0,0,2.024,2.432,17.604,6.625c0,0,0.27-1.53-1.469-1.853
			c-1.749-0.332-6.75-1.083-6.967-1.185c-0.225-0.1,0.028-0.201,0.028-0.201s0.754-0.497,0.754-0.955
			c0-0.467-0.183-0.956-0.754-0.926c0,0-0.028-0.432,0.218-0.384c0.241,0.056,0.571-0.022,0.536-0.292
			c-0.021-0.277,0.275-0.295,0.712-0.377c0.441-0.09,0.41-0.605,0.41-0.605v-3.322c0,0-0.14-0.153-0.28-0.258
			c0,0-0.347,0.879-0.661,1.234c-0.311,0.359-1.076,1.66-1.047,2.629c0,0,0.141,0.232-0.224,0.445
			c-0.343,0.216-0.644,0.715-0.697,1.119c-0.055,0.412,0.316,0.736,0,0.602c-0.334-0.141-0.686-0.602-0.447-1.145
			c0.247-0.551,0.609-1.008,0.419-1.528c-0.19-0.517-0.19-0.708,0.028-0.956c0.215-0.24,0.427-0.92,0.373-1.354l-1.089-1.473
			c0,0-0.207,0.203-0.325,0.426c-0.107,0.228-0.271,1.131-0.135,1.425c0.135,0.305,0.49,0.818,0.516,1.344
			c0.025,0.508-0.218,0.761-0.056,1.095c0.163,0.336,0.219,0.914-0.047,1.324c-0.278,0.406-0.497,1.002,0.022,1.25
			c0.522,0.242,1.249-0.111,1.057,0.682c0,0-2.094-0.682-2.873-0.979c-0.794-0.301-4.405-1.864-5.408-2.798"/>
	</g>
</g>
<path fill="none" stroke="#B8842C" stroke-width="0.1779" stroke-linecap="round" stroke-miterlimit="10" d="M30.253,20.142
	c0.259-0.264,0.771-0.113,0.771-0.113"/>
<path fill="#B8842C" d="M30.695,19.987c0,0,0.102,0.423-0.055,0.519c-0.083,0.046-0.386-0.364-0.386-0.364
	S30.48,19.956,30.695,19.987z"/>
<path fill="none" stroke="#B8842C" stroke-width="0.3352" stroke-miterlimit="10" d="M26.745,24.918c0,0,0.139,0.591,0.484,0.532
	c0.346-0.062,0.909-0.687,1.185-0.715c0.272-0.029,1.815,0.557,1.875,0.568c0,0,0.272,1.16-0.363,1.948
	c-0.638,0.788-3.591,3.275-2.455,5.527c0,0-0.093,0.32,0.153,0.41c0,0-0.185,0.455,0.347,0.592c0,0,0.786,0.637,0.926,0.879
	c0.134,0.242,0.484,0.545,0.652,0.574c0,0,0.179,0.636,0.648,0.469c0.469-0.167,1.289-1.438,1.469-1.665
	c0.185-0.226,0.818-0.803,0.26-1.273c-0.562-0.468-0.821-0.604-0.821-0.604s-0.181-0.395-0.257-0.426c0,0,1.636-1.223,1.728-1.287
	c0,0,1.562,2.697,1.304,3.924c0,0-0.333,0.151-0.183,0.41c0,0-0.773,0.348-0.106,0.68c0,0-0.651,1.229-0.438,1.637
	c0.21,0.409,1.137,1.227,3.269,0.911c2.138-0.318,0.608-2.593,0.608-2.593s0.411,0.105,0.532-0.105
	c0.12-0.212-0.045-0.605-0.379-0.573c0,0-0.169-0.386-0.406-0.366c0,0-0.207-1.531,0.601-2.773c0.197-0.299,1.062-1.801,1.152-1.996
	c0,0,2.992,1.041,5.377-0.848c0,0,1.363,1.469,1.876,1.979c0.508,0.511,1.192,1.941,1.056,2.737c0,0-0.363,0.103-0.125,0.343
	c0,0-0.599,0.543,0.143,0.797c0,0-0.78,1.166-0.461,1.656s1.963,1.447,3.753,0.137c0.171-0.125,0.329-1.082-0.242-1.943
	c0,0,0.036-0.08,0-0.227c0,0,0.354,0.181,0.525-0.024c0.171-0.204-0.182-0.443-0.308-0.443c0,0,0.398-0.386-0.137-0.433
	c0,0-1.204-2.947-0.418-5.897l0.761-2.426c0.792,0.76,1.305,3.388,1.305,3.388L52,28.221c0-0.161-0.038-0.458-0.142-0.795
	c-0.113-0.368-0.406-1.683-0.771-2.537c-0.339-0.796-0.908-4.348-1.113-4.757c-0.201-0.409-0.659-1.729-2.588-2.975
	c-1.935-1.252-3.929-0.596-5.204,0c-1.275,0.588-2.274,0.848-3.158,0.861c-0.464,0.009-2.179-0.19-4.34-1.842
	c-2.171-1.651-4.947-1.311-6.259,0c-0.44,0.441-1.529,1.624-2.344,2.986c-0.822,1.364-2.374,2.649-3.319,1.346
	c-0.244-0.33-0.366-4.12,5.938-5.045c0,0,2.894-0.558,3.152-1.605c0.257-1.043,0.046-1.558-0.322-1.423
	c-0.358,0.141-0.729,0.492-0.752,0.531c0,0-0.414-0.667-0.749-0.552c-0.33,0.111-0.255,0.278-0.21,0.597
	c0.047,0.317,0.065,0.664-0.693,0.789c-0.473,0.073-5.896,0.376-7.939,3.241c-2.049,2.862-0.659,6.737,3.198,7.574
	c0.173,0.039,0.333,0.02,0.333,0.02"/>
<path fill="none" stroke="#B8842C" stroke-width="0.3204" stroke-miterlimit="10" d="M26.865,24.824
	c-1.952,1.136-3.076,0.307-3.076,0.307s-0.15-0.126,0.213-0.241c0.366-0.112,1.477-0.533,1.523-0.646
	c0.046-0.115,0.194-0.386,0.488-0.295s0.931-0.466,0.931-0.466s0.16-0.396,0.534-0.388c0.375,0.012,1.038-0.602,1.068-0.648
	c0.034-0.045,0.775,0.217,0.68,0.988c0,0-0.802,0.423-0.896,0.434c0,0-0.258,0.521-0.533,0.386L26.865,24.824z"/>
<path fill="none" stroke="#B8842C" stroke-width="0.3204" stroke-miterlimit="10" d="M36.174,17.142c0,0,0.213,5.487-0.216,6.898
	c-0.436,1.411-1.047,4.657-1.027,4.771c0.025,0.114,0.625-0.309,0.979-0.417c0.419-0.129,1.838-0.86,4.682-0.27
	c2.84,0.592,4.59-0.444,5.021-0.593c0.43-0.153,2.044-0.605,2.569-0.388c0,0-0.362-1.424-0.34-2.356
	c0.021-0.93-0.143-5.518-0.344-6.429c-0.028-0.136-0.191-0.995-0.415-1.384"/>
<path fill="none" stroke="#B8842C" stroke-width="0.3204" stroke-miterlimit="10" d="M37.896,17.842c0,0-0.125,5.532-0.244,6.559
	c-0.122,1.032-0.182,1.834-0.182,1.834s0.578-0.305,2.046,0c1.467,0.305,4.439,0.092,5.274-0.289
	c0.83-0.378,1.452-0.523,1.603-0.707c0,0-0.527-1.208-0.428-2.968c0.109-1.765,0.187-5.123-0.904-5.829"/>
<path fill="none" stroke="#B8842C" stroke-width="0.3204" stroke-miterlimit="10" d="M30.29,25.303c0,0,4.033-2.916,5.884-6.44
	c0.018-0.026,0.027-0.052,0.043-0.08"/>
<path fill="none" stroke="#B8842C" stroke-width="0.3204" stroke-miterlimit="10" d="M30.303,26.404
	c0.519-0.132,3.465-1.068,5.897-4.71"/>
<path fill="none" stroke="#B8842C" stroke-width="0.3204" stroke-miterlimit="10" d="M32.531,30.336
	c-0.059-0.154-1.401-1.591-2.235-3.909"/>
<path fill="none" stroke="#B8842C" stroke-width="0.2889" stroke-miterlimit="10" d="M41.932,19.62c0,0,0.623,0.627,0.702,1.364
	c0,0,1.002-0.134,1.41,0.427c0,0-0.66,0.871-1.367,0.788c0,0-0.028,0.807-0.669,1.181c0,0-0.529-0.421-0.69-1.108
	c0,0-0.669,0.028-1.364-0.631c0,0,0.25-0.511,1.263-0.511C41.217,21.129,41.385,19.937,41.932,19.62z"/>
<path fill="none" stroke="#B8842C" stroke-width="0.3204" stroke-miterlimit="10" d="M50.327,24.927c0,0,0.183-0.666,0.264-0.879
	c0.032-0.089,0.065-0.273,0.094-0.456"/>
<path fill="none" stroke="#B8842C" stroke-width="0.3204" stroke-miterlimit="10" d="M47.839,24.153c0,0,0.659-0.06,1.401,0
	c0.745,0.06,1.282-0.059,1.35-0.105"/>
<path fill="none" stroke="#B8842C" stroke-width="0.3204" stroke-miterlimit="10" d="M47.737,21.229c0,0,1.314,0.294,2.573,0"/>
<path fill="none" stroke="#B8842C" stroke-width="0.3204" stroke-miterlimit="10" d="M47.791,22.462c0,0,1.392,0.235,2.763-0.264"/>
<path fill="none" stroke="#B8842C" stroke-width="0.3204" stroke-miterlimit="10" d="M47.791,22.865c0,0,1.286,0.022,1.709,0
	c0.414-0.024,1-0.183,1.144-0.259"/>
<path fill="none" stroke="#B8842C" stroke-width="0.2023" stroke-miterlimit="10" d="M48.133,23.318
	c-0.117,0.032-0.103,0.25,0.049,0.287c0.149,0.041,0.193-0.03,0.203-0.145C48.393,23.35,48.323,23.267,48.133,23.318z"/>
<path fill="none" stroke="#B8842C" stroke-width="0.2023" stroke-miterlimit="10" d="M48.764,23.345
	c-0.119,0.054-0.106,0.33,0.054,0.347c0.157,0.015,0.337,0,0.354-0.123C49.188,23.448,49.076,23.19,48.764,23.345z"/>
<path fill="none" stroke="#B8842C" stroke-width="0.2023" stroke-miterlimit="10" d="M49.582,23.337
	c-0.107,0.153,0.054,0.283,0.138,0.281c0.082-0.005,0.288-0.073,0.232-0.239C49.899,23.212,49.696,23.166,49.582,23.337z"/>
<path fill="none" stroke="#B8842C" stroke-width="0.2023" stroke-miterlimit="10" d="M50.195,23.494
	c0.02,0.131,0.254,0.135,0.348,0.038c0.091-0.097,0.076-0.309-0.05-0.304C50.362,23.235,50.149,23.216,50.195,23.494z"/>
<path fill="none" stroke="#B8842C" stroke-width="0.3204" stroke-miterlimit="10" d="M47.762,21.745c0,0,0.156,0.25,0.461,0.25
	c0.297,0,0.359-0.168,0.373-0.341c0.016-0.175-0.019-0.311-0.159-0.324"/>
<path fill="none" stroke="#B8842C" stroke-width="0.3204" stroke-miterlimit="10" d="M48.57,21.804c0,0,0.133,0.243,0.392,0.236
	c0.255-0.007,0.363-0.1,0.378-0.236s0.037-0.39-0.128-0.446"/>
<path fill="none" stroke="#B8842C" stroke-width="0.3204" stroke-miterlimit="10" d="M49.352,21.768c0,0,0.134,0.166,0.404,0.166
	c0.267,0,0.39-0.214,0.435-0.353c0.043-0.14,0.017-0.241-0.036-0.318"/>
<path fill="none" stroke="#B8842C" stroke-width="0.3204" stroke-miterlimit="10" d="M28.687,15.945c0,0,0.56,0.217,1.683,0.16
	c1.149-0.058,1.54-0.156,1.784-0.264c0.244-0.103,0.718-0.404,0.815-0.55"/>
<path fill="none" stroke="#B8842C" stroke-width="0.3204" stroke-miterlimit="10" d="M28.218,16.391c0,0,1.031,0.345,2.272,0.284
	c1.24-0.059,1.753-0.181,2.193-0.36c0.441-0.183,0.783-0.613,0.915-0.786"/>
<path fill="none" stroke="#B8842C" stroke-width="0.2023" stroke-miterlimit="10" d="M28.01,17.268
	c-0.12,0.033-0.106,0.25,0.045,0.288s0.196-0.031,0.206-0.144C28.27,17.297,28.199,17.214,28.01,17.268z"/>
<path fill="none" stroke="#B8842C" stroke-width="0.2023" stroke-miterlimit="10" d="M29.846,17.443
	c-0.12,0.034-0.106,0.248,0.044,0.286c0.153,0.039,0.195-0.029,0.208-0.142C30.102,17.474,30.033,17.388,29.846,17.443z"/>
<path fill="none" stroke="#B8842C" stroke-width="0.2023" stroke-miterlimit="10" d="M31.924,17.201
	c-0.118,0.034-0.105,0.25,0.043,0.288c0.154,0.036,0.2-0.031,0.209-0.142C32.182,17.23,32.113,17.146,31.924,17.201z"/>
<path fill="none" stroke="#B8842C" stroke-width="0.2023" stroke-miterlimit="10" d="M32.882,16.892
	c-0.121,0.03-0.11,0.25,0.047,0.288c0.148,0.036,0.195-0.031,0.202-0.146C33.137,16.919,33.069,16.838,32.882,16.892z"/>
<path fill="none" stroke="#B8842C" stroke-width="0.2023" stroke-miterlimit="10" d="M33.676,16.386
	c-0.117,0.033-0.104,0.25,0.045,0.288c0.153,0.037,0.198-0.029,0.207-0.144C33.935,16.414,33.866,16.332,33.676,16.386z"/>
<path fill="none" stroke="#B8842C" stroke-width="0.2023" stroke-miterlimit="10" d="M28.979,17.425
	c-0.102-0.066-0.256,0.085-0.182,0.223c0.072,0.139,0.147,0.128,0.243,0.06C29.126,17.635,29.146,17.529,28.979,17.425z"/>
<path fill="none" stroke="#B8842C" stroke-width="0.2023" stroke-miterlimit="10" d="M31.06,17.356
	c-0.104-0.066-0.254,0.088-0.18,0.224c0.068,0.14,0.149,0.131,0.24,0.058C31.21,17.57,31.227,17.464,31.06,17.356z"/>
<path fill="none" stroke="#B8842C" stroke-width="0.2456" stroke-miterlimit="10" d="M30.374,25.239c0,0,0.412,0.675,0.65,0.699
	c0.236,0.022,0.21-0.109,0.091-0.353c-0.125-0.239-0.438-0.688-0.208-0.759c0.231-0.072,0.345,0.353,0.433,0.553
	c0.091,0.206,0.481,0.433,0.471,0.125c-0.014-0.307-0.209-0.373-0.374-0.556c-0.16-0.184-0.263-0.559,0.077-0.499
	c0.341,0.056,0.524,0.609,0.657,0.742c0.139,0.135,0.618,0.201,0.308-0.198c-0.308-0.398-0.588-0.716-0.56-0.824
	c0.024-0.105,0.054-0.3,0.329,0c0.274,0.303,0.493,0.53,0.721,0.552c0.228,0.024,0.375-0.058,0.216-0.297
	c-0.159-0.237-0.626-0.702-0.525-0.897c0.103-0.19,0.239-0.161,0.472,0.091c0.233,0.25,0.427,0.602,0.561,0.615
	c0.14,0.011,0.321-0.149,0.116-0.467c-0.203-0.318-0.582-0.625-0.603-0.76c-0.021-0.138,0.088-0.42,0.393-0.132
	c0.301,0.29,0.564,0.766,0.732,0.744c0.173-0.021,0.466-0.319,0.136-0.602c-0.328-0.286-0.781-0.572-0.539-0.745
	c0.244-0.176,0.463,0.164,0.588,0.334c0.122,0.171,0.316,0.345,0.53,0.341c0.218,0,0.125-0.406-0.114-0.59
	c-0.238-0.182-0.703-0.563-0.556-0.693c0.147-0.134,0.42-0.134,0.706,0.218c0.283,0.353,0.637,0.346,0.668,0.158
	c0.038-0.183-0.442-0.667-0.601-0.811c-0.158-0.145-0.306-0.473,0.023-0.347c0.331,0.124,0.682,0.789,0.828,0.782
	c0.148-0.01,0.178-0.521-0.124-0.74c-0.309-0.213-0.627-0.538-0.431-0.677c0.191-0.139,0.701,0.474,0.772,0.407"/>
<path fill="none" stroke="#B8842C" stroke-width="0.2456" stroke-miterlimit="10" d="M36.226,20.065c0,0-0.732-0.317-0.268-0.445
	c0.065-0.021,0.142-0.01,0.057-0.165c-0.086-0.151-0.05-0.208,0-0.3"/>
<path fill="none" stroke="#B8842C" stroke-width="0.3204" stroke-miterlimit="10" d="M25.525,24.244c0,0,0.462,0.25,0.598,0.392
	c0.135,0.146,0.178,0.32,0.182,0.469"/>
<path fill="none" stroke="#B8842C" stroke-width="0.3204" stroke-miterlimit="10" d="M26.142,23.953c0,0,0.524,0.445,0.658,0.906"/>
<path fill="none" stroke="#B8842C" stroke-width="0.3204" stroke-miterlimit="10" d="M26.944,23.483c0,0,0.792,0.14,0.853,0.771"/>
<path fill="none" stroke="#B8842C" stroke-width="0.3204" stroke-miterlimit="10" d="M27.6,23.083c0,0,0.64,0.333,0.695,0.847"/>
<path fill="none" stroke="#B8842C" stroke-width="0.3204" stroke-miterlimit="10" d="M30.374,26.382c0,0,0.106,0.619,0.512,0.542
	c0.412-0.076,0.519-0.671,0.243-0.812"/>
<path fill="none" stroke="#B8842C" stroke-width="0.3204" stroke-miterlimit="10" d="M31.282,26.045c0,0,0.009,0.26,0.281,0.334
	c0.273,0.075,0.341,0.125,0.502-0.024c0.155-0.146,0.224-0.5-0.077-0.663"/>
<path fill="none" stroke="#B8842C" stroke-width="0.3204" stroke-miterlimit="10" d="M32.176,25.895c0,0,0.143,0.188,0.531,0.045
	c0.384-0.146,0.392-0.311,0.36-0.424c-0.026-0.115-0.194-0.376-0.238-0.348"/>
<path fill="none" stroke="#B8842C" stroke-width="0.3204" stroke-miterlimit="10" d="M33.064,25.496c0,0,0.394,0.11,0.544,0
	c0.156-0.117,0.438-0.408,0.261-0.641c-0.177-0.231-0.25-0.214-0.377-0.179"/>
<path fill="none" stroke="#B8842C" stroke-width="0.3204" stroke-miterlimit="10" d="M33.771,24.449c0,0-0.065,0.175-0.033,0.261"/>
<path fill="none" stroke="#B8842C" stroke-width="0.3204" stroke-miterlimit="10" d="M33.87,24.855c0,0,0.405,0.041,0.597-0.146
	c0.192-0.183,0.221-0.399,0.149-0.5c-0.077-0.101-0.358-0.141-0.53-0.039"/>
<path fill="none" stroke="#B8842C" stroke-width="0.3204" stroke-miterlimit="10" d="M34.55,24.157c0,0-0.191-0.24-0.093-0.335"/>
<path fill="none" stroke="#B8842C" stroke-width="0.3204" stroke-miterlimit="10" d="M34.637,24.251c0,0,0.167,0.063,0.427-0.094
	c0.26-0.154,0.364-0.379,0.225-0.521c-0.137-0.142-0.36-0.248-0.555-0.097"/>
<path fill="none" stroke="#B8842C" stroke-width="0.3204" stroke-miterlimit="10" d="M35.064,23.485c0,0-0.083-0.212,0.032-0.345"/>
<path fill="none" stroke="#B8842C" stroke-width="0.3204" stroke-miterlimit="10" d="M35.187,23.549c0,0,0.299,0.044,0.501-0.235
	c0.208-0.28,0.159-0.489,0.15-0.574c-0.015-0.086-0.147-0.223-0.32-0.105"/>
<path fill="none" stroke="#B8842C" stroke-width="0.3204" stroke-miterlimit="10" d="M35.74,22.609c0,0-0.041-0.208,0.021-0.291"/>
<path fill="none" stroke="#B8842C" stroke-width="0.3204" stroke-miterlimit="10" d="M35.838,22.74c0,0,0.168,0.073,0.309,0"/>
<path fill="none" stroke="#B8842C" stroke-width="0.3204" stroke-miterlimit="10" d="M29.55,35.233c0,0-0.033-0.604,0.479-0.553
	c0.521,0.056,0.629,0.083,0.813,0.461"/>
<path fill="none" stroke="#B8842C" stroke-width="0.3204" stroke-miterlimit="10" d="M30.565,34.792c0,0-0.322-0.317-0.153-0.573
	c0.166-0.26,0.505-0.355,0.648-0.252c0.146,0.107,0.468,0.264,0.468,0.264"/>
<path fill="none" stroke="#B8842C" stroke-width="0.3204" stroke-miterlimit="10" d="M30.995,33.925c0,0-0.333-0.381-0.052-0.647
	c0.288-0.262,0.491-0.398,0.724-0.348c0.237,0.055,0.501,0.258,0.478,0.362"/>
<path fill="none" stroke="#B8842C" stroke-width="0.3204" stroke-miterlimit="10" d="M33.131,36.672c0,0,0.356-0.355,0.589-0.29
	c0.232,0.069,0.492,0.423,0.445,0.808c-0.045,0.385-0.153,0.611-0.153,0.611"/>
<path fill="none" stroke="#B8842C" stroke-width="0.3204" stroke-miterlimit="10" d="M34.124,37.453c0,0,0.217-0.536,0.466-0.581
	c0.253-0.047,0.486,0.162,0.449,0.581c-0.04,0.417-0.046,0.599-0.046,0.599"/>
<path fill="none" stroke="#B8842C" stroke-width="0.3204" stroke-miterlimit="10" d="M45.7,30.647c0,0-1.291,1.541-1.322,3.14
	c0,0,0.185,0.212-0.051,0.327c0,0,0.28,0.339,0.212,0.445c-0.069,0.107-0.1,0.177-0.212,0.221c0,0,0.325,1.621-0.29,2.007
	c-0.612,0.387-1.792,0.067-2.696-0.258c-0.9-0.323-0.88-0.694-0.811-0.854c0.038-0.092,0.549-1.234,0.549-1.234
	c-0.095-0.086-0.207-0.254-0.193-0.403c0.02-0.15,0.193-0.31,0.193-0.31c-0.079-0.107-0.079-0.166-0.079-0.229
	c0-0.06,0.297-0.121,0.297-0.121c0-0.1,0.06-0.945,0.175-1.377c0.112-0.432,0.209-2.229,0.209-2.229"/>
<path fill="none" stroke="#B8842C" stroke-width="0.3204" stroke-miterlimit="10" d="M40.565,36.024c0,0,0.43-0.617,0.708-0.609
	c0.28,0.002,0.508,0.291,0.458,0.609c-0.047,0.321-0.261,0.549-0.261,0.549"/>
<path fill="none" stroke="#B8842C" stroke-width="0.3204" stroke-miterlimit="10" d="M41.839,36.696c0,0-0.292-0.349,0-0.701
	c0.289-0.355,0.399-0.4,0.699-0.238c0.302,0.168,0.284,0.645,0.284,0.76c0,0.111-0.013,0.361-0.123,0.393"/>
<path fill="none" stroke="#B8842C" stroke-width="0.3204" stroke-miterlimit="10" d="M42.776,36.084c0,0,0.217-0.388,0.422-0.368
	c0.203,0.026,0.382,0.228,0.39,0.368c0.011,0.141,0.055,0.723,0,0.859"/>
<path fill="none" stroke="#B8842C" stroke-width="0.3204" stroke-miterlimit="10" d="M26.944,17.888c0,0,2.208,0.772,4.08,0.326
	c1.873-0.447,3.41-0.857,3.907-1.851"/>
<path fill="none" stroke="#B8842C" stroke-width="0.3204" stroke-miterlimit="10" d="M26.496,18.509c0,0,1.169,0.763,3.298,0.583
	c2.125-0.18,3.777-0.756,4.481-1.266c0.704-0.515,1.07-0.893,1.128-1.145"/>
<path fill="none" stroke="#B8842C" stroke-width="0.3204" stroke-miterlimit="10" d="M37.865,19.089c0,0,0.986-0.069,1.317-1.072"/>
<path fill="none" stroke="#B8842C" stroke-width="0.3204" stroke-miterlimit="10" d="M37.848,19.846c0,0,0.802,0.018,1.016-0.303
	c0,0,0.233,0.467,1.289,0.377c0,0,0.151-0.512-0.393-1.08c0,0,0.256-0.282,0.159-0.916"/>
<path fill="none" stroke="#B8842C" stroke-width="0.3204" stroke-miterlimit="10" d="M45.866,18.187
	c-0.166-0.021-0.506-0.066-0.923-0.414c-0.415-0.345,0.118-1.33,0.118-1.33"/>
<path fill="none" stroke="#B8842C" stroke-width="0.3204" stroke-miterlimit="10" d="M44.308,16.488c0,0-0.367,0.893-0.022,1.326
	c0,0,0.07,0.066-0.03,0.263c-0.103,0.202-0.348,0.76-0.117,0.816c0.23,0.056,0.652-0.305,0.822-0.411
	c0.043-0.027,0.1,0.011,0.188,0.045c0.083,0.033,0.646,0.174,0.788,0.171"/>
<path fill="none" stroke="#B8842C" stroke-width="0.3204" stroke-miterlimit="10" d="M37.594,24.933c0,0,1.134-0.404,1.458,1.225"/>
<path fill="none" stroke="#B8842C" stroke-width="0.3204" stroke-miterlimit="10" d="M37.646,24.449c0,0,0.621-0.409,1.187,0.13
	c0,0,0.512-0.51,1.122-0.351c0,0,0.018,0.667-0.402,0.938c0,0-0.075,0.062-0.035,0.174c0.035,0.115,0.362,0.606,0,0.895"/>
<path fill="none" stroke="#B8842C" stroke-width="0.3204" stroke-miterlimit="10" d="M44.646,26.003c0,0-0.561-0.609-0.199-1.258
	c0.037-0.069,0.013-0.183-0.121-0.296c-0.139-0.114-0.562-0.5-0.364-0.712c0.199-0.211,0.666-0.017,0.871,0.085
	c0.055,0.029,0.105,0.005,0.154-0.079c0.051-0.083,0.301-0.541,0.991-0.404"/>
<path fill="none" stroke="#B8842C" stroke-width="0.3204" stroke-miterlimit="10" d="M46.067,24.048c0,0-1.354,0.226-0.843,1.695"/>
<path fill="none" stroke="#B8842C" stroke-width="0.3204" stroke-miterlimit="10" d="M37.705,17.787c0,0,0.184,0.196,0.184,0.332"/>
<path fill="none" stroke="#B8842C" stroke-width="0.3204" stroke-miterlimit="10" d="M27.472,32.778c0,0,0.909-1.068,3.377-1.045"/>
<path fill="none" stroke="#B8842C" stroke-width="0.3204" stroke-miterlimit="10" d="M30.943,31.846
	c-2.055,0.145-3.318,1.342-3.318,1.342"/>
<path fill="none" stroke="#B8842C" stroke-width="0.2023" stroke-miterlimit="10" d="M27.665,33.151c0,0,0.26,0.029,0.354,0.147
	c0.09,0.127,0.135,0.315-0.046,0.481"/>
<path fill="none" stroke="#B8842C" stroke-width="0.2023" stroke-miterlimit="10" d="M28.096,32.961
	c-0.031,0.05-0.122,0.184,0,0.286c0.122,0.1,0.288,0.171,0.382,0.028c0.097-0.145,0.138-0.314,0-0.389
	C28.343,32.822,28.173,32.827,28.096,32.961z"/>
<path fill="none" stroke="#B8842C" stroke-width="0.2023" stroke-miterlimit="10" d="M28.677,32.586
	c-0.053,0.08-0.011,0.316,0.189,0.334c0.198,0.016,0.324-0.049,0.353-0.166c0.028-0.119-0.021-0.322-0.201-0.286
	C28.912,32.493,28.785,32.436,28.677,32.586z"/>
<path fill="none" stroke="#B8842C" stroke-width="0.2023" stroke-miterlimit="10" d="M29.329,32.338
	c-0.054,0.051-0.042,0.291,0.112,0.326c0.154,0.03,0.339-0.047,0.395-0.146c0.061-0.1,0.082-0.214-0.063-0.262
	C29.632,32.208,29.54,32.149,29.329,32.338z"/>
<path fill="none" stroke="#B8842C" stroke-width="0.2023" stroke-miterlimit="10" d="M29.932,32.128
	c0,0.054,0.013,0.232,0.153,0.276c0.145,0.047,0.253,0.007,0.333-0.101c0.08-0.105,0.054-0.286-0.121-0.313
	C30.125,31.965,29.932,32.055,29.932,32.128z"/>
<path fill="none" stroke="#B8842C" stroke-width="0.2023" stroke-miterlimit="10" d="M30.545,31.888c0,0-0.086,0.227,0,0.32
	c0.086,0.096,0.223,0.13,0.304,0.078c0.083-0.051,0.189-0.092,0.211-0.224"/>
<path fill="none" stroke="#B8842C" stroke-width="0.2023" stroke-miterlimit="10" d="M33.698,34.78c0,0,0.428,0.408-0.106,0.68"/>
<path fill="none" stroke="#B8842C" stroke-width="0.2023" stroke-miterlimit="10" d="M34.173,34.984
	c-0.11,0.04-0.202,0.29-0.113,0.423c0.082,0.128,0.288,0.176,0.401,0.053c0.111-0.121,0.099-0.28,0-0.375
	C34.364,34.984,34.339,34.93,34.173,34.984z"/>
<path fill="none" stroke="#B8842C" stroke-width="0.2023" stroke-miterlimit="10" d="M34.804,35.164
	c-0.046,0.056-0.167,0.333,0.039,0.443c0.203,0.105,0.421,0.024,0.465-0.147c0.046-0.171-0.004-0.353-0.146-0.385
	C35.018,35.048,34.887,35.053,34.804,35.164z"/>
<path fill="none" stroke="#B8842C" stroke-width="0.2023" stroke-miterlimit="10" d="M35.601,35.164
	c-0.046,0.056-0.164,0.333,0.039,0.443c0.205,0.105,0.419,0.024,0.467-0.147c0.042-0.171-0.008-0.353-0.147-0.385
	C35.816,35.048,35.683,35.053,35.601,35.164z"/>
<path fill="none" stroke="#B8842C" stroke-width="0.2023" stroke-miterlimit="10" d="M36.292,35.12
	c-0.047,0.1-0.145,0.271,0.045,0.34c0.188,0.072,0.381,0.089,0.447-0.045c0.068-0.141,0.09-0.275-0.045-0.354
	C36.601,34.984,36.326,35.041,36.292,35.12z"/>
<path fill="none" stroke="#B8842C" stroke-width="0.2023" stroke-miterlimit="10" d="M37.183,34.736c0,0-0.286,0.171-0.244,0.384
	c0.037,0.211,0.206,0.304,0.475,0.301"/>
<path fill="none" stroke="#B8842C" stroke-width="0.3204" stroke-miterlimit="10" d="M33.881,34.37c0,0,1.543,0.455,2.896,0"/>
<path fill="none" stroke="#B8842C" stroke-width="0.3204" stroke-miterlimit="10" d="M33.676,34.736c0,0,1.72,0.657,3.507,0"/>
<path fill="none" stroke="#B8842C" stroke-width="0.3204" stroke-miterlimit="10" d="M41.296,33.377c0,0,1.317,0.357,3.084,0.379"/>
<path fill="none" stroke="#B8842C" stroke-width="0.3204" stroke-miterlimit="10" d="M41.078,33.727c0,0,1.157,0.422,3.248,0.387"/>
<path fill="none" stroke="#B8842C" stroke-width="0.2023" stroke-miterlimit="10" d="M40.885,34.037
	c0.097-0.077,0.153-0.273,0.344-0.21c0.189,0.06,0.274,0.248,0.22,0.354c-0.053,0.107-0.108,0.266-0.37,0.26"/>
<path fill="none" stroke="#B8842C" stroke-width="0.2023" stroke-miterlimit="10" d="M41.71,34.047
	c-0.153,0.042-0.205,0.172-0.153,0.26c0.05,0.094,0.322,0.217,0.474,0.133c0.152-0.086,0.197-0.198,0.156-0.254
	C42.155,34.135,42.078,33.934,41.71,34.047z"/>
<path fill="none" stroke="#B8842C" stroke-width="0.2023" stroke-miterlimit="10" d="M42.477,34.18
	c-0.087,0.031-0.212,0.253-0.089,0.357c0.119,0.104,0.393,0.114,0.505,0.035c0.118-0.08,0.033-0.369-0.056-0.393
	C42.75,34.159,42.634,34.127,42.477,34.18z"/>
<path fill="none" stroke="#B8842C" stroke-width="0.2023" stroke-miterlimit="10" d="M43.243,34.239
	c-0.125,0.051-0.303,0.305,0,0.42c0.304,0.113,0.508-0.068,0.522-0.152C43.781,34.422,43.665,34.075,43.243,34.239z"/>
<path fill="none" stroke="#B8842C" stroke-width="0.2023" stroke-miterlimit="10" d="M44.388,34.196c0,0-0.224,0.004-0.352,0.043
	c-0.128,0.042-0.248,0.248-0.18,0.334c0.07,0.086,0.21,0.207,0.47,0.207"/>
<path fill="none" stroke="#B8842C" stroke-width="0.3204" stroke-miterlimit="10" d="M46.839,33.468c0,0,1.508,0.465,3.147-0.138"/>
<path fill="none" stroke="#B8842C" stroke-width="0.3204" stroke-miterlimit="10" d="M46.715,33.811c0,0,1.54,0.375,3.409-0.048"/>
<path fill="none" stroke="#B8842C" stroke-width="0.2023" stroke-miterlimit="10" d="M46.555,34.042c0,0,0.18-0.197,0.336-0.107
	c0.157,0.091,0.492,0.414-0.128,0.727"/>
<path fill="none" stroke="#B8842C" stroke-width="0.2023" stroke-miterlimit="10" d="M47.301,34.051
	c-0.066,0.033-0.196,0.395,0.041,0.437c0.232,0.042,0.336-0.035,0.379-0.153C47.755,34.211,47.619,33.895,47.301,34.051z"/>
<path fill="none" stroke="#B8842C" stroke-width="0.2023" stroke-miterlimit="10" d="M47.968,34.151
	c-0.059,0.075-0.028,0.389,0.183,0.4c0.208,0.016,0.37-0.158,0.355-0.299C48.492,34.114,48.196,33.857,47.968,34.151z"/>
<path fill="none" stroke="#B8842C" stroke-width="0.2023" stroke-miterlimit="10" d="M48.591,34.226
	c-0.054,0.079,0.02,0.3,0.239,0.328c0.221,0.032,0.365-0.097,0.341-0.271c-0.023-0.17-0.187-0.297-0.354-0.266
	C48.651,34.047,48.637,34.159,48.591,34.226z"/>
<path fill="none" stroke="#B8842C" stroke-width="0.2023" stroke-miterlimit="10" d="M49.377,34.115
	c-0.042,0.085-0.061,0.308,0.108,0.325c0.164,0.013,0.315,0.002,0.325-0.164c0.007-0.162-0.091-0.273-0.278-0.267
	C49.355,34.016,49.405,34.051,49.377,34.115z"/>
<path fill="none" stroke="#B8842C" stroke-width="0.2023" stroke-miterlimit="10" d="M49.907,34.231c0,0-0.075-0.184,0-0.311
	c0.079-0.125,0.069-0.082,0.167-0.144"/>
<path fill="none" stroke="#B8842C" stroke-width="0.3204" stroke-miterlimit="10" d="M46.35,36.167c0,0,0.094-0.385,0.307-0.501
	c0.213-0.114,0.35-0.159,0.547,0.13c0.193,0.285-0.011,0.848-0.108,1"/>
<path fill="none" stroke="#B8842C" stroke-width="0.3204" stroke-miterlimit="10" d="M47.284,36.05c0,0,0.063-0.326,0.404-0.334
	c0.342-0.004,0.567,0.358,0.579,0.474c0.006,0.114,0.062,0.698,0.049,0.871"/>
<path fill="none" stroke="#B8842C" stroke-width="0.3204" stroke-miterlimit="10" d="M48.246,36.13c0,0,0.246-0.46,0.504-0.414
	c0.255,0.048,0.474,0.179,0.467,0.474c-0.008,0.295-0.076,0.719-0.076,0.719"/>
<path fill="none" stroke="#B8842C" stroke-width="0.3204" stroke-miterlimit="10" d="M27.797,18.985c0,0-2.614,3.803-4.582,3.459
	c-1.97-0.344-2.03-2.688-1.652-3.547c0.379-0.859,1.501-3.024,4.275-3.494c2.77-0.468,5.239-1.122,4.938-2.438"/>
<path fill="none" stroke="#B8842C" stroke-width="0.2456" stroke-miterlimit="10" d="M41.921,20.751c0,0,0.314,0.555,0.289,0.69
	c0,0,0.471-0.057,0.75,0.082c0,0-0.438,0.412-0.75,0.351c0,0-0.086,0.508-0.211,0.645c0,0-0.327-0.288-0.366-0.714
	c0,0-0.421,0.094-0.73-0.105c0,0,0.218-0.319,0.759-0.258C41.661,21.441,41.724,20.853,41.921,20.751z"/>
<g>
	<g>
		<path fill="#B9842C" d="M86.822,25.854v6.938h-1.914v-6.938H82.26v-1.765h7.212v1.765H86.822z"/>
		<path fill="#B9842C" d="M96.57,32.792v-3.494h-3.53v3.494h-1.915v-8.703h1.915v3.443h3.53v-3.443h1.915v8.703H96.57z"/>
		<path fill="#B9842C" d="M100.761,32.792v-8.703h6.564v1.703h-4.662v1.766h4.103v1.703h-4.103v1.827h4.725v1.704H100.761z"/>
		<path fill="#B9842C" d="M116.29,32.917c-1.318,0-2.648-0.46-3.692-1.392l1.131-1.356c0.784,0.647,1.604,1.058,2.599,1.058
			c0.783,0,1.256-0.312,1.256-0.821V30.38c0-0.485-0.299-0.733-1.753-1.106c-1.754-0.448-2.884-0.933-2.884-2.661v-0.025
			c0-1.579,1.268-2.624,3.045-2.624c1.269,0,2.35,0.398,3.232,1.106l-0.994,1.443c-0.771-0.535-1.529-0.857-2.263-0.857
			s-1.119,0.335-1.119,0.758v0.025c0,0.572,0.373,0.759,1.877,1.144c1.766,0.46,2.761,1.095,2.761,2.611v0.025
			C119.485,31.948,118.167,32.917,116.29,32.917z"/>
		<path fill="#B9842C" d="M125.565,32.942c-2.686,0-4.613-2.002-4.613-4.476v-0.025c0-2.475,1.953-4.501,4.639-4.501
			c2.685,0,4.612,2.002,4.612,4.476v0.025C130.203,30.915,128.251,32.942,125.565,32.942z M128.201,28.441
			c0-1.492-1.095-2.735-2.636-2.735c-1.542,0-2.611,1.218-2.611,2.71v0.025c0,1.491,1.095,2.735,2.637,2.735
			c1.541,0,2.61-1.219,2.61-2.71V28.441z"/>
		<path fill="#B9842C" d="M135.723,32.929c-2.337,0-3.767-1.306-3.767-3.867v-4.973h1.914v4.923c0,1.417,0.709,2.151,1.879,2.151
			c1.168,0,1.877-0.708,1.877-2.089v-4.985h1.914V29C139.54,31.635,138.062,32.929,135.723,32.929z"/>
		<path fill="#B9842C" d="M146.964,32.792l-1.866-2.784h-1.505v2.784h-1.914v-8.703h3.979c2.053,0,3.283,1.082,3.283,2.872v0.025
			c0,1.405-0.759,2.288-1.865,2.698l2.126,3.108H146.964z M147.001,27.061c0-0.821-0.572-1.244-1.505-1.244h-1.903v2.499h1.941
			c0.932,0,1.467-0.497,1.467-1.231V27.061z"/>
		<path fill="#B9842C" d="M154.934,32.942c-2.562,0-4.464-1.977-4.464-4.476v-0.025c0-2.475,1.865-4.501,4.537-4.501
			c1.643,0,2.625,0.547,3.433,1.343l-1.218,1.405c-0.672-0.61-1.355-0.982-2.227-0.982c-1.467,0-2.523,1.218-2.523,2.71v0.025
			c0,1.491,1.031,2.735,2.523,2.735c0.994,0,1.604-0.397,2.288-1.02l1.218,1.23C157.606,32.345,156.612,32.942,154.934,32.942z"/>
		<path fill="#B9842C" d="M160.218,32.792v-8.703h6.564v1.703h-4.662v1.766h4.102v1.703h-4.102v1.827h4.725v1.704H160.218z"/>
	</g>
</g>
<g>
	<g>
		<path fill="#B9842C" d="M96.745,42.265c-0.988,0-1.722-0.764-1.722-1.728v-0.01c0-0.954,0.72-1.736,1.751-1.736
			c0.633,0,1.013,0.211,1.324,0.519l-0.471,0.542c-0.259-0.234-0.522-0.379-0.858-0.379c-0.565,0-0.974,0.47-0.974,1.045v0.01
			c0,0.576,0.397,1.056,0.974,1.056c0.384,0,0.618-0.153,0.883-0.394l0.471,0.476C97.777,42.035,97.394,42.265,96.745,42.265z"/>
		<path fill="#B9842C" d="M101.157,42.265c-1.036,0-1.779-0.772-1.779-1.728v-0.01c0-0.954,0.753-1.736,1.789-1.736
			s1.779,0.772,1.779,1.727v0.01C102.946,41.483,102.194,42.265,101.157,42.265z M102.175,40.528c0-0.574-0.422-1.055-1.018-1.055
			c-0.595,0-1.008,0.47-1.008,1.045v0.01c0,0.576,0.422,1.056,1.018,1.056c0.595,0,1.008-0.47,1.008-1.046V40.528z"/>
		<path fill="#B9842C" d="M105.253,39.52v0.717h1.602v0.671h-1.602v1.3h-0.738V38.85h2.556v0.67H105.253z"/>
		<path fill="#B9842C" d="M109.31,39.52v0.717h1.602v0.671h-1.602v1.3h-0.738V38.85h2.557v0.67H109.31z"/>
		<path fill="#B9842C" d="M112.628,42.208V38.85h2.533v0.656h-1.8v0.681h1.583v0.657h-1.583v0.705h1.823v0.658H112.628z"/>
		<path fill="#B9842C" d="M116.752,42.208V38.85h2.532v0.656h-1.799v0.681h1.584v0.657h-1.584v0.705h1.823v0.658H116.752z"/>
		<path fill="#B9842C" d="M124.8,42.265c-0.988,0-1.723-0.764-1.723-1.728v-0.01c0-0.954,0.72-1.736,1.751-1.736
			c0.633,0,1.013,0.211,1.324,0.519l-0.471,0.542c-0.259-0.234-0.522-0.379-0.858-0.379c-0.566,0-0.974,0.47-0.974,1.045v0.01
			c0,0.576,0.398,1.056,0.974,1.056c0.384,0,0.619-0.153,0.883-0.394l0.469,0.476C125.831,42.035,125.446,42.265,124.8,42.265z"/>
		<path fill="#B9842C" d="M129.212,42.265c-1.037,0-1.781-0.772-1.781-1.728v-0.01c0-0.954,0.754-1.736,1.789-1.736
			c1.037,0,1.78,0.772,1.78,1.727v0.01C131,41.483,130.247,42.265,129.212,42.265z M130.228,40.528c0-0.574-0.422-1.055-1.016-1.055
			c-0.596,0-1.008,0.47-1.008,1.045v0.01c0,0.576,0.422,1.056,1.016,1.056c0.596,0,1.008-0.47,1.008-1.046V40.528z"/>
		<path fill="#B9842C" d="M135.191,42.208v-2.193l-0.945,1.436h-0.019l-0.936-1.42v2.178h-0.725V38.85h0.796l0.883,1.419
			l0.884-1.419h0.795v3.357H135.191z"/>
		<path fill="#B9842C" d="M138.94,41.2h-0.561v1.008h-0.739V38.85h1.372c0.801,0,1.286,0.475,1.286,1.16v0.01
			C140.299,40.797,139.694,41.2,138.94,41.2z M139.55,40.024c0-0.33-0.23-0.508-0.599-0.508h-0.571v1.027h0.586
			c0.369,0,0.584-0.221,0.584-0.51V40.024z"/>
		<path fill="#B9842C" d="M143.919,42.208l-0.307-0.754h-1.42l-0.307,0.754h-0.754l1.439-3.383h0.681l1.44,3.383H143.919z
			 M142.902,39.713l-0.446,1.088h0.892L142.902,39.713z"/>
		<path fill="#B9842C" d="M148.475,42.208l-1.626-2.135v2.135h-0.729V38.85h0.68l1.574,2.066V38.85h0.729v3.357H148.475z"/>
		<path fill="#B9842C" d="M152.503,40.869v1.339h-0.738v-1.324l-1.291-2.033h0.863l0.801,1.348l0.816-1.348h0.839L152.503,40.869z"
			/>
	</g>
</g>
</svg>
