<?xml version="1.0" encoding="utf-8"?>
<!-- Generator: Adobe Illustrator 16.0.0, SVG Export Plug-In . SVG Version: 6.00 Build 0)  -->
<!DOCTYPE svg PUBLIC "-//W3C//DTD SVG 1.1//EN" "http://www.w3.org/Graphics/SVG/1.1/DTD/svg11.dtd">
<svg version="1.1" id="Layer_1" xmlns="http://www.w3.org/2000/svg" xmlns:xlink="http://www.w3.org/1999/xlink" x="0px" y="0px"
	 width="91.583px" height="13.917px" viewBox="0 0 91.583 13.917" enable-background="new 0 0 91.583 13.917" xml:space="preserve">
<rect x="1.333" y="1.542" fill="#E6E7E8" width="76.706" height="11.077"/>
<rect x="78.04" y="1.542" fill="#E0AB5C" width="12.293" height="11.077"/>
<g>
	<g>
		<path fill="#BCBEC0" d="M6.5,9.662c-0.75,0-1.289-0.176-1.765-0.658l0.504-0.498C5.603,8.87,6.002,8.982,6.514,8.982
			c0.651,0,1.029-0.28,1.029-0.764c0-0.217-0.063-0.399-0.196-0.518C7.221,7.581,7.095,7.532,6.801,7.49L6.212,7.406
			C5.806,7.35,5.484,7.21,5.267,7.007C5.021,6.775,4.903,6.46,4.903,6.054c0-0.869,0.63-1.464,1.667-1.464
			c0.659,0,1.121,0.168,1.548,0.567L7.634,5.634C7.326,5.34,6.969,5.249,6.548,5.249c-0.588,0-0.91,0.336-0.91,0.777
			c0,0.182,0.056,0.343,0.189,0.462c0.126,0.112,0.329,0.196,0.56,0.231l0.567,0.084c0.462,0.07,0.722,0.182,0.932,0.371
			C8.159,7.413,8.292,7.77,8.292,8.197C8.292,9.115,7.543,9.662,6.5,9.662z"/>
		<path fill="#BCBEC0" d="M9.852,8.05c0,0.609,0.322,0.994,0.903,0.994c0.399,0,0.609-0.111,0.861-0.363l0.456,0.427
			c-0.364,0.364-0.708,0.554-1.331,0.554c-0.889,0-1.597-0.47-1.597-1.821c0-1.149,0.595-1.814,1.506-1.814
			c0.953,0,1.506,0.7,1.506,1.709V8.05H9.852z M11.351,7.07c-0.112-0.266-0.364-0.448-0.7-0.448c-0.336,0-0.595,0.182-0.708,0.448
			c-0.07,0.161-0.084,0.266-0.091,0.483h1.597C11.442,7.336,11.421,7.231,11.351,7.07z"/>
		<path fill="#BCBEC0" d="M15.117,9.619V9.296c-0.259,0.26-0.504,0.365-0.946,0.365c-0.441,0-0.735-0.105-0.952-0.322
			c-0.182-0.189-0.28-0.463-0.28-0.764c0-0.595,0.413-1.022,1.226-1.022h0.938V7.301c0-0.448-0.224-0.665-0.777-0.665
			c-0.392,0-0.582,0.091-0.777,0.343l-0.469-0.441c0.336-0.392,0.686-0.511,1.274-0.511c0.974,0,1.464,0.413,1.464,1.218v2.374
			H15.117z M15.103,8.05h-0.833c-0.42,0-0.637,0.189-0.637,0.512s0.203,0.504,0.651,0.504c0.273,0,0.476-0.021,0.665-0.203
			c0.105-0.105,0.154-0.273,0.154-0.525V8.05z"/>
		<path fill="#BCBEC0" d="M18.974,6.902c-0.161-0.161-0.287-0.238-0.532-0.238c-0.385,0-0.708,0.308-0.708,0.798v2.157H17.02v-3.55
			h0.7v0.385c0.182-0.252,0.546-0.427,0.946-0.427c0.343,0,0.602,0.091,0.847,0.336L18.974,6.902z"/>
		<path fill="#BCBEC0" d="M21.375,9.662c-0.799,0-1.583-0.49-1.583-1.821s0.784-1.814,1.583-1.814c0.49,0,0.833,0.14,1.169,0.497
			L22.054,7c-0.224-0.245-0.399-0.336-0.679-0.336c-0.273,0-0.504,0.112-0.659,0.315c-0.154,0.196-0.21,0.448-0.21,0.862
			c0,0.413,0.056,0.673,0.21,0.868c0.154,0.203,0.385,0.315,0.659,0.315c0.28,0,0.455-0.091,0.679-0.337l0.49,0.47
			C22.208,9.514,21.865,9.662,21.375,9.662z"/>
		<path fill="#BCBEC0" d="M25.624,9.619V7.441c0-0.539-0.315-0.777-0.714-0.777c-0.399,0-0.721,0.245-0.721,0.777v2.178h-0.714
			V4.632h0.714v1.793c0.245-0.266,0.567-0.399,0.917-0.399c0.792,0,1.232,0.532,1.232,1.303v2.29H25.624z"/>
	</g>
</g>
<path fill="#5D5E5E" d="M83.342,8.398c0.43,0.356,0.98,0.571,1.581,0.571c1.368,0,2.481-1.112,2.481-2.48
	c0-1.368-1.113-2.48-2.481-2.48c-1.367,0-2.48,1.113-2.48,2.48c0,0.451,0.123,0.873,0.335,1.238
	c-0.004,0.003-0.009,0.004-0.012,0.007l-1.67,1.67c-0.085,0.085-0.128,0.197-0.128,0.311c0,0.111,0.043,0.225,0.128,0.31
	c0.172,0.171,0.45,0.171,0.621,0L83.342,8.398z M84.923,4.886c0.885,0,1.604,0.719,1.604,1.603s-0.719,1.603-1.604,1.603
	c-0.883,0-1.603-0.719-1.603-1.603S84.041,4.886,84.923,4.886z"/>
</svg>
