<?xml version="1.0" encoding="utf-8"?>
<!-- Generator: Adobe Illustrator 16.0.0, SVG Export Plug-In . SVG Version: 6.00 Build 0)  -->
<!DOCTYPE svg PUBLIC "-//W3C//DTD SVG 1.1//EN" "http://www.w3.org/Graphics/SVG/1.1/DTD/svg11.dtd">
<svg version="1.1" id="Layer_1" xmlns="http://www.w3.org/2000/svg" xmlns:xlink="http://www.w3.org/1999/xlink" x="0px" y="0px"
	 width="25.875px" height="25.812px" viewBox="0 0 25.875 25.812" enable-background="new 0 0 25.875 25.812" xml:space="preserve">
<g>
	<circle fill="#5D5E5E" cx="13.029" cy="12.874" r="10.697"/>
	<path fill="#FAF7F0" d="M6.622,14.885c0,0,1.702,2.494,5.04,2.494c3.341,0,5.956-2.196,6.236-4.251c0,0,1.081,0.084,1.556-0.595
		c0,0-1.127,0.031-1.272-0.114c0,0,1.115-0.146,1.199-0.777c0,0-0.532,0.271-1.44,0.065c0,0-0.044,0.023-0.075-0.118
		c-0.032-0.139-0.48-2.159-2.555-2.38c0,0,1.025-0.214,0.876-0.553c-0.043-0.094-0.323-0.121-0.713,0.024
		c0,0,0.228-0.262,0.121-0.305C15.488,8.33,14.73,8.722,14.73,8.722s0.086-0.176,0.051-0.245c-0.035-0.07-0.831,0.675-1.145,1.23
		c-0.317,0.555-0.671,1.352-0.884,1.885c0,0-0.487-0.88-4.264-2.239c0,0-0.194,0.856,0.948,1.616c0,0-0.548,0.056-0.628,0.094
		c-0.082,0.04,0.078,0.98,1.196,1.313c0,0-0.582,0.156-0.656,0.348c-0.076,0.191,0.585,0.876,1.415,0.868
		c0,0-0.386,0.235-0.369,0.567c0.017,0.331,0.525,0.54,0.858,0.53c0,0-0.997,1.079-2.511,0.983c-0.183-0.012-1.024,0.016-2.071-0.83
		C6.672,14.842,6.563,14.764,6.622,14.885z"/>
</g>
</svg>
